<mxfile host="app.diagrams.net" modified="2024-03-29T13:11:40.887Z" agent="Mozilla/5.0 (X11; Linux x86_64) AppleWebKit/537.36 (KHTML, like Gecko) Chrome/116.0.0.0 Safari/537.36" etag="9IurV97TUloeAJ_6v5VK" version="24.2.0" type="github">
  <diagram name="Page-1" id="29X9yQcGgdXP1ez2ROOn">
    <mxGraphModel dx="880" dy="449" grid="1" gridSize="10" guides="1" tooltips="1" connect="1" arrows="1" fold="1" page="1" pageScale="1" pageWidth="850" pageHeight="1100" math="0" shadow="0">
      <root>
        <mxCell id="0" />
        <mxCell id="1" parent="0" />
        <mxCell id="X0sqdMQ3XIA2bhM3Ga_q-1" value="&lt;b&gt;&lt;font style=&quot;font-size: 24px;&quot;&gt;API&lt;/font&gt;&lt;/b&gt;" style="rounded=0;whiteSpace=wrap;html=1;" vertex="1" parent="1">
          <mxGeometry x="360" y="80" width="160" height="60" as="geometry" />
        </mxCell>
        <mxCell id="X0sqdMQ3XIA2bhM3Ga_q-2" value="&lt;b&gt;&lt;font style=&quot;font-size: 23px;&quot;&gt;Flask-App&lt;/font&gt;&lt;/b&gt;" style="rounded=0;whiteSpace=wrap;html=1;" vertex="1" parent="1">
          <mxGeometry x="360" y="240" width="160" height="60" as="geometry" />
        </mxCell>
        <mxCell id="X0sqdMQ3XIA2bhM3Ga_q-3" value="" style="endArrow=classic;html=1;rounded=0;exitX=0.75;exitY=0;exitDx=0;exitDy=0;entryX=0.75;entryY=1;entryDx=0;entryDy=0;" edge="1" parent="1" source="X0sqdMQ3XIA2bhM3Ga_q-2" target="X0sqdMQ3XIA2bhM3Ga_q-1">
          <mxGeometry width="50" height="50" relative="1" as="geometry">
            <mxPoint x="450" y="240" as="sourcePoint" />
            <mxPoint x="460" y="150" as="targetPoint" />
          </mxGeometry>
        </mxCell>
        <mxCell id="X0sqdMQ3XIA2bhM3Ga_q-4" value="" style="endArrow=classic;html=1;rounded=0;exitX=0.25;exitY=1;exitDx=0;exitDy=0;entryX=0.25;entryY=0;entryDx=0;entryDy=0;" edge="1" parent="1" source="X0sqdMQ3XIA2bhM3Ga_q-1" target="X0sqdMQ3XIA2bhM3Ga_q-2">
          <mxGeometry width="50" height="50" relative="1" as="geometry">
            <mxPoint x="430" y="240" as="sourcePoint" />
            <mxPoint x="480" y="190" as="targetPoint" />
          </mxGeometry>
        </mxCell>
        <mxCell id="X0sqdMQ3XIA2bhM3Ga_q-5" value="request" style="text;html=1;align=center;verticalAlign=middle;whiteSpace=wrap;rounded=0;fontStyle=1;fontSize=14;textShadow=0;" vertex="1" parent="1">
          <mxGeometry x="450" y="180" width="60" height="30" as="geometry" />
        </mxCell>
        <mxCell id="X0sqdMQ3XIA2bhM3Ga_q-6" value="responce" style="text;html=1;align=center;verticalAlign=middle;whiteSpace=wrap;rounded=0;fontStyle=1;fontSize=14;textShadow=0;" vertex="1" parent="1">
          <mxGeometry x="370" y="180" width="60" height="30" as="geometry" />
        </mxCell>
        <mxCell id="X0sqdMQ3XIA2bhM3Ga_q-11" value="" style="shape=parallelogram;perimeter=parallelogramPerimeter;whiteSpace=wrap;html=1;fixedSize=1;" vertex="1" parent="1">
          <mxGeometry x="620" y="240" width="170" height="60" as="geometry" />
        </mxCell>
        <mxCell id="X0sqdMQ3XIA2bhM3Ga_q-12" value="&lt;b&gt;&lt;font style=&quot;font-size: 23px;&quot;&gt;DATABASE&lt;/font&gt;&lt;/b&gt;" style="shape=cylinder3;whiteSpace=wrap;html=1;boundedLbl=1;backgroundOutline=1;size=15;" vertex="1" parent="1">
          <mxGeometry x="100" y="190" width="130" height="140" as="geometry" />
        </mxCell>
        <mxCell id="X0sqdMQ3XIA2bhM3Ga_q-13" value="" style="endArrow=classic;html=1;rounded=0;entryX=0;entryY=0.25;entryDx=0;entryDy=0;exitX=0.985;exitY=0.457;exitDx=0;exitDy=0;exitPerimeter=0;" edge="1" parent="1" source="X0sqdMQ3XIA2bhM3Ga_q-12" target="X0sqdMQ3XIA2bhM3Ga_q-2">
          <mxGeometry width="50" height="50" relative="1" as="geometry">
            <mxPoint x="270" y="250" as="sourcePoint" />
            <mxPoint x="320" y="200" as="targetPoint" />
          </mxGeometry>
        </mxCell>
        <mxCell id="X0sqdMQ3XIA2bhM3Ga_q-14" value="" style="endArrow=classic;html=1;rounded=0;exitX=0;exitY=0.75;exitDx=0;exitDy=0;" edge="1" parent="1" source="X0sqdMQ3XIA2bhM3Ga_q-2">
          <mxGeometry width="50" height="50" relative="1" as="geometry">
            <mxPoint x="200" y="320" as="sourcePoint" />
            <mxPoint x="230" y="285" as="targetPoint" />
          </mxGeometry>
        </mxCell>
        <mxCell id="X0sqdMQ3XIA2bhM3Ga_q-15" value="responce" style="text;html=1;align=center;verticalAlign=middle;whiteSpace=wrap;rounded=0;fontStyle=1;fontSize=14;textShadow=0;" vertex="1" parent="1">
          <mxGeometry x="260" y="231" width="60" height="30" as="geometry" />
        </mxCell>
        <mxCell id="X0sqdMQ3XIA2bhM3Ga_q-16" value="query" style="text;html=1;align=center;verticalAlign=middle;whiteSpace=wrap;rounded=0;fontStyle=1;fontSize=14;textShadow=0;" vertex="1" parent="1">
          <mxGeometry x="260" y="277" width="60" height="30" as="geometry" />
        </mxCell>
      </root>
    </mxGraphModel>
  </diagram>
</mxfile>
